# xmcd CD database file
#
# Track frame offsets:
#	150
#	10780
#	23333
#	37389
#	49613
#	62676
#	73605
#	90583
#	102433
#	114925
#	126054
#
# Disc length: 1832 seconds
#
# Revision: 0
# Processed by: cddbd v1.5.1PL2 Copyright (c) Steve Scherf et al.
# Submitted via: CDex 1.51
#
DISCID=8607260b
DTITLE=Johnny Cross - Yesterday Once More
DYEAR=1999
DGENRE=Country
TTITLE0=Don't Let It Go To Your Heart
TTITLE1=Tente Bertha
TTITLE2=Dying Pains
TTITLE3=Thunder and Lightnin'
TTITLE4=Wondering
TTITLE5=Caught In the MIddle
TTITLE6=Speak Softly
TTITLE7=I'm Wondering Why
TTITLE8=Pasadena Sunset
TTITLE9=Part Time Cowboy
TTITLE10=Let's Do It Once Again
EXTD=YEAR: 1999
EXTT0=
EXTT1=
EXTT2=
EXTT3=
EXTT4=
EXTT5=
EXTT6=
EXTT7=
EXTT8=
EXTT9=
EXTT10=
PLAYORDER=
